<svg width="21" height="20" viewBox="0 0 21 20" fill="none" xmlns="http://www.w3.org/2000/svg">
<path fill-rule="evenodd" clip-rule="evenodd" d="M10.8332 2.91661C6.92742 2.91661 3.74992 6.09411 3.74992 9.99994C3.74992 13.9058 6.92742 17.0833 10.8332 17.0833C14.7391 17.0833 17.9166 13.9058 17.9166 9.99994C17.9166 6.09411 14.7391 2.91661 10.8332 2.91661ZM10.8333 18.3333C6.23827 18.3333 2.49994 14.595 2.49994 9.99996C2.49994 5.40496 6.23827 1.66663 10.8333 1.66663C15.4283 1.66663 19.1666 5.40496 19.1666 9.99996C19.1666 14.595 15.4283 18.3333 10.8333 18.3333Z" fill="black"/>
<path fill-rule="evenodd" clip-rule="evenodd" d="M13.6926 13.0769C13.5835 13.0769 13.4735 13.0486 13.3726 12.9894L10.231 11.1153C10.0426 11.0019 9.92596 10.7978 9.92596 10.5778V6.53778C9.92596 6.19278 10.206 5.91278 10.551 5.91278C10.8968 5.91278 11.176 6.19278 11.176 6.53778V10.2228L14.0135 11.9144C14.3093 12.0919 14.4068 12.4753 14.2301 12.7719C14.1126 12.9678 13.9051 13.0769 13.6926 13.0769Z" fill="black"/>
</svg>
