<svg width="20" height="20" viewBox="0 0 20 20" fill="none" xmlns="http://www.w3.org/2000/svg">
<path fill-rule="evenodd" clip-rule="evenodd" d="M9.90743 10.5156H9.9341C12.3741 10.5156 14.3583 8.53144 14.3583 6.09144C14.3583 3.65144 12.3741 1.66644 9.9341 1.66644C7.49327 1.66644 5.50827 3.65144 5.50827 6.08894C5.49993 8.52228 7.47243 10.5081 9.90743 10.5156ZM6.69827 6.09144C6.69827 4.30728 8.14993 2.85644 9.9341 2.85644C11.7174 2.85644 13.1683 4.30728 13.1683 6.09144C13.1683 7.87478 11.7174 9.32644 9.9341 9.32644H9.90993C8.13327 9.31978 6.69243 7.86978 6.69827 6.09144Z" fill="black"/>
<path fill-rule="evenodd" clip-rule="evenodd" d="M3.33325 15.1442C3.33325 18.2251 8.30159 18.2251 9.93409 18.2251C12.7666 18.2251 16.5333 17.9076 16.5333 15.1609C16.5333 12.0801 11.5666 12.0801 9.93409 12.0801C7.10075 12.0801 3.33325 12.3976 3.33325 15.1442ZM4.58325 15.1442C4.58325 13.9401 6.38325 13.3301 9.93409 13.3301C13.4841 13.3301 15.2833 13.9459 15.2833 15.1609C15.2833 16.3651 13.4841 16.9751 9.93409 16.9751C6.38325 16.9751 4.58325 16.3592 4.58325 15.1442Z" fill="black"/>
</svg>
