<svg width="20" height="20" viewBox="0 0 20 20" fill="none" xmlns="http://www.w3.org/2000/svg">
<path fill-rule="evenodd" clip-rule="evenodd" d="M1.66675 9.99984C1.66675 5.404 5.40508 1.6665 10.0001 1.6665C14.5951 1.6665 18.3334 5.404 18.3334 9.99984C18.3334 14.5948 14.5951 18.3332 10.0001 18.3332C7.39425 18.3332 4.98591 17.1473 3.39425 15.0815C3.19008 14.8157 3.23925 14.4348 3.50508 14.2315C3.76925 14.0265 4.14925 14.0773 4.35425 14.3415C5.71508 16.1082 7.77258 17.1215 10.0001 17.1215C13.9267 17.1215 17.1217 13.9273 17.1217 9.99984C17.1217 6.07317 13.9267 2.87817 10.0001 2.87817C6.07341 2.87817 2.87841 6.07317 2.87841 9.99984C2.87841 10.3648 2.90591 10.7273 2.96008 11.0823C3.01008 11.4123 2.78341 11.7215 2.45258 11.7723C2.12008 11.8273 1.81258 11.5965 1.76258 11.2657C1.69925 10.8507 1.66675 10.4248 1.66675 9.99984ZM10 6.21158C9.65504 6.21158 9.37504 6.49158 9.37504 6.83658V10.5199C9.37504 10.8649 9.65504 11.1449 10 11.1449C10.345 11.1449 10.625 10.8649 10.625 10.5199V6.83658C10.625 6.49158 10.345 6.21158 10 6.21158ZM10.0085 12.5381H10.0002C9.65521 12.5381 9.37937 12.8181 9.37937 13.1631C9.37937 13.5081 9.66354 13.7881 10.0085 13.7881C10.3535 13.7881 10.6335 13.5081 10.6335 13.1631C10.6335 12.8181 10.3535 12.5381 10.0085 12.5381Z" fill="black"/>
</svg>
