<svg width="12" height="12" viewBox="0 0 12 12" fill="none" xmlns="http://www.w3.org/2000/svg">
<path d="M8.9592 7.16005C8.8297 7.28555 8.7702 7.46705 8.7997 7.64505L9.2442 10.105C9.2817 10.3135 9.1937 10.5245 9.0192 10.645C8.8482 10.77 8.6207 10.785 8.4342 10.685L6.2197 9.53005C6.1427 9.48905 6.0572 9.46705 5.9697 9.46455H5.8342C5.7872 9.47155 5.7412 9.48655 5.6992 9.50955L3.4842 10.67C3.3747 10.725 3.2507 10.7445 3.1292 10.725C2.8332 10.669 2.63569 10.387 2.68419 10.0895L3.1292 7.62955C3.1587 7.45005 3.0992 7.26755 2.9697 7.14005L1.16419 5.39005C1.01319 5.24355 0.960697 5.02355 1.02969 4.82505C1.09669 4.62705 1.26769 4.48255 1.47419 4.45005L3.9592 4.08955C4.1482 4.07005 4.3142 3.95505 4.3992 3.78505L5.4942 1.54005C5.5202 1.49005 5.5537 1.44405 5.5942 1.40505L5.6392 1.37005C5.6627 1.34405 5.6897 1.32255 5.7197 1.30505L5.7742 1.28505L5.8592 1.25005H6.0697C6.2577 1.26955 6.4232 1.38205 6.5097 1.55005L7.6192 3.78505C7.6992 3.94855 7.8547 4.06205 8.0342 4.08955L10.5192 4.45005C10.7292 4.48005 10.9047 4.62505 10.9742 4.82505C11.0397 5.02555 10.9832 5.24555 10.8292 5.39005L8.9592 7.16005Z" fill="#1460F2"/>
</svg>
