<svg width="85" height="85" viewBox="0 0 85 85" fill="none" xmlns="http://www.w3.org/2000/svg">
<g clip-path="url(#clip0_2004_1111)">
<path d="M42.5 85C65.9721 85 85 65.9721 85 42.5C85 19.0279 65.9721 0 42.5 0C19.0279 0 0 19.0279 0 42.5C0 65.9721 19.0279 85 42.5 85Z" fill="#D9D9D9"/>
<path fill-rule="evenodd" clip-rule="evenodd" d="M51.8233 35.1518C51.8233 40.0468 47.8985 43.9719 43 43.9719C38.1032 43.9719 34.1767 40.0468 34.1767 35.1518C34.1767 30.2567 38.1032 26.3333 43 26.3333C47.8985 26.3333 51.8233 30.2567 51.8233 35.1518ZM43 59.6667C35.7706 59.6667 29.6667 58.4917 29.6667 53.9583C29.6667 49.4232 35.809 48.2899 43 48.2899C50.2311 48.2899 56.3334 49.4649 56.3334 53.9983C56.3334 58.5333 50.1911 59.6667 43 59.6667Z" fill="black"/>
</g>
<defs>
<clipPath id="clip0_2004_1111">
<rect width="85" height="85" fill="white"/>
</clipPath>
</defs>
</svg>
