<svg width="22" height="20" viewBox="0 0 22 20" fill="none" xmlns="http://www.w3.org/2000/svg">
<path fill-rule="evenodd" clip-rule="evenodd" d="M5.87514 2.91661C3.58348 2.91661 3.58348 3.08994 3.58348 5.20827V5.22911C3.58348 6.15161 3.58348 6.81827 3.80931 7.09994C4.03014 7.37327 4.68598 7.49994 5.87514 7.49994C7.06431 7.49994 7.72014 7.37244 7.94098 7.09911C8.16681 6.81827 8.16681 6.15161 8.16681 5.22827C8.16681 3.08994 8.16681 2.91661 5.87514 2.91661ZM5.87516 8.74996C4.47016 8.74996 3.416 8.60246 2.83683 7.88329C2.3335 7.25913 2.3335 6.40746 2.3335 5.22913L2.9585 5.20829H2.3335C2.3335 2.81663 2.48433 1.66663 5.87516 1.66663C9.266 1.66663 9.41683 2.81663 9.41683 5.20829C9.41683 6.40663 9.41683 7.25913 8.9135 7.88329C8.33433 8.60246 7.28016 8.74996 5.87516 8.74996Z" fill="black"/>
<path fill-rule="evenodd" clip-rule="evenodd" d="M15.0417 2.91661C12.75 2.91661 12.75 3.08994 12.75 5.20827V5.22911C12.75 6.15161 12.75 6.81827 12.9759 7.09994C13.1967 7.37327 13.8525 7.49994 15.0417 7.49994C16.2309 7.49994 16.8867 7.37244 17.1075 7.09911C17.3334 6.81827 17.3334 6.15161 17.3334 5.22827C17.3334 3.08994 17.3334 2.91661 15.0417 2.91661ZM15.0417 8.74996C13.6367 8.74996 12.5825 8.60246 12.0033 7.88329C11.5 7.25913 11.5 6.40746 11.5 5.22913L12.125 5.20829H11.5C11.5 2.81663 11.6508 1.66663 15.0417 1.66663C18.4325 1.66663 18.5833 2.81663 18.5833 5.20829C18.5833 6.40663 18.5833 7.25913 18.08 7.88329C17.5008 8.60246 16.4467 8.74996 15.0417 8.74996Z" fill="black"/>
<path fill-rule="evenodd" clip-rule="evenodd" d="M5.87514 12.0833C3.58348 12.0833 3.58348 12.2567 3.58348 14.375V14.3958C3.58348 15.3183 3.58348 15.985 3.80931 16.2667C4.03014 16.54 4.68598 16.6667 5.87514 16.6667C7.06431 16.6667 7.72014 16.5392 7.94098 16.2658C8.16681 15.985 8.16681 15.3183 8.16681 14.395C8.16681 12.2567 8.16681 12.0833 5.87514 12.0833ZM5.87516 17.9166C4.47016 17.9166 3.416 17.7691 2.83683 17.05C2.3335 16.4258 2.3335 15.5741 2.3335 14.3958L2.9585 14.375H2.3335C2.3335 11.9833 2.48433 10.8333 5.87516 10.8333C9.266 10.8333 9.41683 11.9833 9.41683 14.375C9.41683 15.5733 9.41683 16.4258 8.9135 17.05C8.33433 17.7691 7.28016 17.9166 5.87516 17.9166Z" fill="black"/>
<path fill-rule="evenodd" clip-rule="evenodd" d="M15.0417 12.0833C12.75 12.0833 12.75 12.2567 12.75 14.375V14.3958C12.75 15.3183 12.75 15.985 12.9759 16.2667C13.1967 16.54 13.8525 16.6667 15.0417 16.6667C16.2309 16.6667 16.8867 16.5392 17.1075 16.2658C17.3334 15.985 17.3334 15.3183 17.3334 14.395C17.3334 12.2567 17.3334 12.0833 15.0417 12.0833ZM15.0417 17.9166C13.6367 17.9166 12.5825 17.7691 12.0033 17.05C11.5 16.4258 11.5 15.5741 11.5 14.3958L12.125 14.375H11.5C11.5 11.9833 11.6508 10.8333 15.0417 10.8333C18.4325 10.8333 18.5833 11.9833 18.5833 14.375C18.5833 15.5733 18.5833 16.4258 18.08 17.05C17.5008 17.7691 16.4467 17.9166 15.0417 17.9166Z" fill="black"/>
</svg>
