<svg width="20" height="20" viewBox="0 0 20 20" fill="none" xmlns="http://www.w3.org/2000/svg">
<path fill-rule="evenodd" clip-rule="evenodd" d="M9.90719 10.5156H9.93386C12.3739 10.5156 14.358 8.53144 14.358 6.09144C14.358 3.65144 12.3739 1.66644 9.93386 1.66644C7.49302 1.66644 5.50802 3.65144 5.50802 6.08894C5.49969 8.52228 7.47219 10.5081 9.90719 10.5156ZM6.69802 6.09144C6.69802 4.30728 8.14969 2.85644 9.93386 2.85644C11.7172 2.85644 13.168 4.30728 13.168 6.09144C13.168 7.87478 11.7172 9.32644 9.93386 9.32644H9.90969C8.13302 9.31978 6.69219 7.86978 6.69802 6.09144Z" fill="black"/>
<path fill-rule="evenodd" clip-rule="evenodd" d="M3.33301 15.1442C3.33301 18.2251 8.30134 18.2251 9.93384 18.2251C12.7663 18.2251 16.533 17.9076 16.533 15.1609C16.533 12.0801 11.5663 12.0801 9.93384 12.0801C7.10051 12.0801 3.33301 12.3976 3.33301 15.1442ZM4.58301 15.1442C4.58301 13.9401 6.38301 13.3301 9.93384 13.3301C13.4838 13.3301 15.283 13.9459 15.283 15.1609C15.283 16.3651 13.4838 16.9751 9.93384 16.9751C6.38301 16.9751 4.58301 16.3592 4.58301 15.1442Z" fill="black"/>
</svg>
