<svg width="12" height="12" viewBox="0 0 12 12" fill="none" xmlns="http://www.w3.org/2000/svg">
<path d="M8.95926 7.16005C8.82976 7.28555 8.77026 7.46705 8.79976 7.64505L9.24426 10.105C9.28176 10.3135 9.19376 10.5245 9.01926 10.645C8.84826 10.77 8.62076 10.785 8.43426 10.685L6.21976 9.53005C6.14276 9.48905 6.05726 9.46705 5.96976 9.46455H5.83426C5.78726 9.47155 5.74126 9.48655 5.69926 9.50955L3.48426 10.67C3.37476 10.725 3.25076 10.7445 3.12926 10.725C2.83326 10.669 2.63575 10.387 2.68425 10.0895L3.12926 7.62955C3.15876 7.45005 3.09926 7.26755 2.96976 7.14005L1.16425 5.39005C1.01325 5.24355 0.960758 5.02355 1.02975 4.82505C1.09675 4.62705 1.26775 4.48255 1.47425 4.45005L3.95926 4.08955C4.14826 4.07005 4.31426 3.95505 4.39926 3.78505L5.49426 1.54005C5.52026 1.49005 5.55376 1.44405 5.59426 1.40505L5.63926 1.37005C5.66276 1.34405 5.68976 1.32255 5.71976 1.30505L5.77426 1.28505L5.85926 1.25005H6.06976C6.25776 1.26955 6.42326 1.38205 6.50976 1.55005L7.61926 3.78505C7.69926 3.94855 7.85476 4.06205 8.03426 4.08955L10.5193 4.45005C10.7293 4.48005 10.9048 4.62505 10.9743 4.82505C11.0398 5.02555 10.9833 5.24555 10.8293 5.39005L8.95926 7.16005Z" fill="#1460F2"/>
</svg>
