<svg width="21" height="20" viewBox="0 0 21 20" fill="none" xmlns="http://www.w3.org/2000/svg">
<path d="M8.11223 17.3111V14.763C8.11223 14.1125 8.6434 13.5852 9.29862 13.5852H11.6938C12.0084 13.5852 12.3102 13.7093 12.5327 13.9302C12.7551 14.151 12.8801 14.4506 12.8801 14.763V17.3111C12.8782 17.5815 12.985 17.8415 13.1769 18.0334C13.3688 18.2254 13.63 18.3333 13.9024 18.3333H15.5364C16.2996 18.3353 17.0322 18.0357 17.5726 17.5006C18.1129 16.9656 18.4166 16.2391 18.4166 15.4815V8.22234C18.4166 7.61034 18.1433 7.02983 17.6704 6.63718L12.1116 2.22985C11.1446 1.45709 9.75918 1.48204 8.82108 2.28911L3.3891 6.63718C2.89387 7.01825 2.59788 7.60049 2.58325 8.22234V15.4741C2.58325 17.0532 3.87274 18.3333 5.4634 18.3333H7.06016C7.62594 18.3333 8.08575 17.8801 8.08985 17.3185L8.11223 17.3111Z" fill="#F2B10A"/>
</svg>
