<svg width="20" height="20" viewBox="0 0 20 20" fill="none" xmlns="http://www.w3.org/2000/svg">
<path fill-rule="evenodd" clip-rule="evenodd" d="M1.66663 9.99984C1.66663 5.404 5.40496 1.6665 9.99996 1.6665C14.595 1.6665 18.3333 5.404 18.3333 9.99984C18.3333 14.5948 14.595 18.3332 9.99996 18.3332C7.39413 18.3332 4.98579 17.1473 3.39413 15.0815C3.18996 14.8157 3.23913 14.4348 3.50496 14.2315C3.76913 14.0265 4.14913 14.0773 4.35413 14.3415C5.71496 16.1082 7.77246 17.1215 9.99996 17.1215C13.9266 17.1215 17.1216 13.9273 17.1216 9.99984C17.1216 6.07317 13.9266 2.87817 9.99996 2.87817C6.07329 2.87817 2.87829 6.07317 2.87829 9.99984C2.87829 10.3648 2.90579 10.7273 2.95996 11.0823C3.00996 11.4123 2.78329 11.7215 2.45246 11.7723C2.11996 11.8273 1.81246 11.5965 1.76246 11.2657C1.69913 10.8507 1.66663 10.4248 1.66663 9.99984ZM9.99992 6.21158C9.65492 6.21158 9.37492 6.49158 9.37492 6.83658V10.5199C9.37492 10.8649 9.65492 11.1449 9.99992 11.1449C10.3449 11.1449 10.6249 10.8649 10.6249 10.5199V6.83658C10.6249 6.49158 10.3449 6.21158 9.99992 6.21158ZM10.0084 12.5381H10.0001C9.65509 12.5381 9.37925 12.8181 9.37925 13.1631C9.37925 13.5081 9.66342 13.7881 10.0084 13.7881C10.3534 13.7881 10.6334 13.5081 10.6334 13.1631C10.6334 12.8181 10.3534 12.5381 10.0084 12.5381Z" fill="black"/>
</svg>
