<svg width="21" height="20" viewBox="0 0 21 20" fill="none" xmlns="http://www.w3.org/2000/svg">
<path d="M8.11248 17.3111V14.763C8.11248 14.1125 8.64364 13.5852 9.29886 13.5852H11.694C12.0087 13.5852 12.3104 13.7093 12.5329 13.9302C12.7554 14.151 12.8804 14.4506 12.8804 14.763V17.3111C12.8784 17.5815 12.9852 17.8415 13.1771 18.0334C13.3691 18.2254 13.6302 18.3333 13.9026 18.3333H15.5367C16.2999 18.3353 17.0325 18.0357 17.5728 17.5006C18.1132 16.9656 18.4168 16.2391 18.4168 15.4815V8.22234C18.4168 7.61034 18.1436 7.02983 17.6707 6.63718L12.1119 2.22985C11.1449 1.45709 9.75942 1.48204 8.82132 2.28911L3.38934 6.63718C2.89411 7.01825 2.59812 7.60049 2.5835 8.22234V15.4741C2.5835 17.0532 3.87298 18.3333 5.46364 18.3333H7.0604C7.62618 18.3333 8.08599 17.8801 8.09009 17.3185L8.11248 17.3111Z" fill="#F2B10A"/>
</svg>
