<svg width="20" height="20" viewBox="0 0 20 20" fill="none" xmlns="http://www.w3.org/2000/svg">
<path fill-rule="evenodd" clip-rule="evenodd" d="M9.90737 10.5156H9.93404C12.374 10.5156 14.3582 8.53144 14.3582 6.09144C14.3582 3.65144 12.374 1.66644 9.93404 1.66644C7.4932 1.66644 5.5082 3.65144 5.5082 6.08894C5.49987 8.52228 7.47237 10.5081 9.90737 10.5156ZM6.69821 6.09144C6.69821 4.30728 8.14987 2.85644 9.93404 2.85644C11.7174 2.85644 13.1682 4.30728 13.1682 6.09144C13.1682 7.87478 11.7174 9.32644 9.93404 9.32644H9.90987C8.1332 9.31978 6.69238 7.86978 6.69821 6.09144Z" fill="black"/>
<path fill-rule="evenodd" clip-rule="evenodd" d="M3.33319 15.1442C3.33319 18.2251 8.30152 18.2251 9.93402 18.2251C12.7665 18.2251 16.5332 17.9076 16.5332 15.1609C16.5332 12.0801 11.5665 12.0801 9.93402 12.0801C7.10069 12.0801 3.33319 12.3976 3.33319 15.1442ZM4.58319 15.1442C4.58319 13.9401 6.38319 13.3301 9.93402 13.3301C13.484 13.3301 15.2832 13.9459 15.2832 15.1609C15.2832 16.3651 13.484 16.9751 9.93402 16.9751C6.38319 16.9751 4.58319 16.3592 4.58319 15.1442Z" fill="black"/>
</svg>
