<svg width="21" height="20" viewBox="0 0 21 20" fill="none" xmlns="http://www.w3.org/2000/svg">
<path fill-rule="evenodd" clip-rule="evenodd" d="M10.8333 2.91661C6.92748 2.91661 3.74998 6.09411 3.74998 9.99994C3.74998 13.9058 6.92748 17.0833 10.8333 17.0833C14.7392 17.0833 17.9167 13.9058 17.9167 9.99994C17.9167 6.09411 14.7392 2.91661 10.8333 2.91661ZM10.8333 18.3333C6.23833 18.3333 2.5 14.595 2.5 9.99996C2.5 5.40496 6.23833 1.66663 10.8333 1.66663C15.4284 1.66663 19.1667 5.40496 19.1667 9.99996C19.1667 14.595 15.4284 18.3333 10.8333 18.3333Z" fill="black"/>
<path fill-rule="evenodd" clip-rule="evenodd" d="M13.6927 13.0769C13.5836 13.0769 13.4736 13.0486 13.3727 12.9894L10.231 11.1153C10.0427 11.0019 9.92603 10.7978 9.92603 10.5778V6.53778C9.92603 6.19278 10.206 5.91278 10.551 5.91278C10.8969 5.91278 11.1761 6.19278 11.1761 6.53778V10.2228L14.0136 11.9144C14.3094 12.0919 14.4069 12.4753 14.2302 12.7719C14.1127 12.9678 13.9052 13.0769 13.6927 13.0769Z" fill="black"/>
</svg>
