<svg width="44" height="45" viewBox="0 0 44 45" fill="none" xmlns="http://www.w3.org/2000/svg">
<rect y="0.5" width="44" height="44" rx="12" fill="#E50F0F" fill-opacity="0.05"/>
<path d="M23.6115 18.16C23.2942 18.1014 23.0027 18.3039 22.9423 18.6137C22.8819 18.9235 23.085 19.2259 23.3938 19.2866C24.3233 19.4678 25.041 20.1873 25.2229 21.12V21.1206C25.2747 21.3891 25.511 21.5843 25.7833 21.5843C25.8198 21.5843 25.8563 21.581 25.8935 21.5743C26.2022 21.5124 26.4054 21.2106 26.3449 20.9001C26.0734 19.5071 25.0011 18.4311 23.6115 18.16Z" fill="#E50F0F"/>
<path d="M23.5693 15.8385C23.4205 15.8172 23.2712 15.8612 23.1523 15.9558C23.0301 16.0517 22.9538 16.1903 22.9372 16.3455C22.902 16.6593 23.1284 16.9431 23.4418 16.9784C25.6029 17.2196 27.2826 18.9031 27.5257 21.0709C27.5582 21.3614 27.8018 21.5806 28.0926 21.5806C28.1146 21.5806 28.1358 21.5793 28.1577 21.5766C28.3098 21.5599 28.4452 21.4847 28.5408 21.3647C28.6357 21.2448 28.6789 21.0956 28.6616 20.943C28.3589 18.2382 26.2655 16.139 23.5693 15.8385Z" fill="#E50F0F"/>
<path fill-rule="evenodd" clip-rule="evenodd" d="M21.3551 23.1483C24.0145 25.8069 24.6178 22.7311 26.3111 24.4232C27.9435 26.0552 28.8817 26.3821 26.8135 28.4498C26.5544 28.658 24.9084 31.1628 19.1237 25.3798C13.3383 19.596 15.8417 17.9483 16.05 17.6893C18.1232 15.6159 18.4446 16.5596 20.077 18.1916C21.7702 19.8843 18.6958 20.4896 21.3551 23.1483Z" fill="#E50F0F"/>
</svg>
