<svg width="44" height="45" viewBox="0 0 44 45" fill="none" xmlns="http://www.w3.org/2000/svg">
<rect y="0.5" width="44" height="44" rx="12" fill="#87CEEB" fill-opacity="0.05"/>
<path fill-rule="evenodd" clip-rule="evenodd" d="M15.334 22.4997C15.334 18.8203 18.3207 15.833 22.0007 15.833C25.6873 15.833 28.6673 18.8203 28.6673 22.4997C28.6673 26.1803 25.6873 29.1663 22.0007 29.1663C18.3207 29.1663 15.334 26.1803 15.334 22.4997ZM21.4141 19.973C21.4141 19.6537 21.6807 19.3863 22.0007 19.3863C22.3207 19.3863 22.5807 19.6537 22.5807 19.973V22.9197C22.5807 23.2403 22.3207 23.4997 22.0007 23.4997C21.6807 23.4997 21.4141 23.2403 21.4141 22.9197V19.973ZM22.0072 25.6203C21.6806 25.6203 21.4206 25.3537 21.4206 25.0337C21.4206 24.7137 21.6806 24.4537 22.0006 24.4537C22.3272 24.4537 22.5872 24.7137 22.5872 25.0337C22.5872 25.3537 22.3272 25.6203 22.0072 25.6203Z" fill="#87CEEB"/>
</svg>
