<svg xmlns="http://www.w3.org/2000/svg" width="15" height="14" viewBox="0 0 15 14" fill="none">
  <path d="M11.4466 8.54675C11.2739 8.71408 11.1946 8.95608 11.2339 9.19341L11.8266 12.4734C11.8766 12.7514 11.7592 13.0327 11.5266 13.1934C11.2986 13.3601 10.9952 13.3801 10.7466 13.2467L7.7939 11.7067C7.69123 11.6521 7.57723 11.6227 7.46057 11.6194H7.2799C7.21724 11.6287 7.1559 11.6487 7.0999 11.6794L4.14657 13.2267C4.00057 13.3001 3.83524 13.3261 3.67324 13.3001C3.27857 13.2254 3.01523 12.8494 3.0799 12.4527L3.67324 9.17275C3.71257 8.93341 3.63324 8.69008 3.46057 8.52008L1.05323 6.18675C0.851902 5.99141 0.781902 5.69808 0.873902 5.43341C0.963235 5.16941 1.19123 4.97675 1.46657 4.93341L4.7799 4.45275C5.0319 4.42675 5.25324 4.27341 5.36657 4.04675L6.82657 1.05341C6.86123 0.986748 6.9059 0.925415 6.9599 0.873415L7.0199 0.826748C7.05123 0.792081 7.08723 0.763415 7.12723 0.740081L7.1999 0.713415L7.31324 0.666748H7.5939C7.84457 0.692748 8.06523 0.842748 8.18057 1.06675L9.6599 4.04675C9.76657 4.26475 9.9739 4.41608 10.2132 4.45275L13.5266 4.93341C13.8066 4.97341 14.0406 5.16675 14.1332 5.43341C14.2206 5.70075 14.1452 5.99408 13.9399 6.18675L11.4466 8.54675Z" fill="#F2B10A"/>
</svg>