<svg width="21" height="20" viewBox="0 0 21 20" fill="none" xmlns="http://www.w3.org/2000/svg">
<mask id="mask0_3779_2229" style="mask-type:luminance" maskUnits="userSpaceOnUse" x="2" y="7" width="17" height="12">
<path fill-rule="evenodd" clip-rule="evenodd" d="M2.16797 7.32812H18.8343V18.7815H2.16797V7.32812Z" fill="white"/>
</mask>
<g mask="url(#mask0_3779_2229)">
<path fill-rule="evenodd" clip-rule="evenodd" d="M15.1388 18.7815H5.8638C3.8263 18.7815 2.16797 17.124 2.16797 15.0856V11.0231C2.16797 8.98563 3.8263 7.32812 5.8638 7.32812H6.6413C6.9863 7.32812 7.2663 7.60813 7.2663 7.95312C7.2663 8.29813 6.9863 8.57812 6.6413 8.57812H5.8638C4.51464 8.57812 3.41797 9.67479 3.41797 11.0231V15.0856C3.41797 16.4348 4.51464 17.5315 5.8638 17.5315H15.1388C16.4871 17.5315 17.5846 16.4348 17.5846 15.0856V11.0156C17.5846 9.67146 16.4913 8.57812 15.148 8.57812H14.3621C14.0171 8.57812 13.7371 8.29813 13.7371 7.95312C13.7371 7.60813 14.0171 7.32812 14.3621 7.32812H15.148C17.1805 7.32812 18.8346 8.98229 18.8346 11.0156V15.0856C18.8346 17.124 17.1763 18.7815 15.1388 18.7815Z" fill="black"/>
</g>
<mask id="mask1_3779_2229" style="mask-type:luminance" maskUnits="userSpaceOnUse" x="9" y="1" width="3" height="12">
<path fill-rule="evenodd" clip-rule="evenodd" d="M9.875 1.6665H11.125V12.9506H9.875V1.6665Z" fill="white"/>
</mask>
<g mask="url(#mask1_3779_2229)">
<path fill-rule="evenodd" clip-rule="evenodd" d="M10.5 12.9507C10.155 12.9507 9.875 12.6707 9.875 12.3257V2.2915C9.875 1.9465 10.155 1.6665 10.5 1.6665C10.845 1.6665 11.125 1.9465 11.125 2.2915V12.3257C11.125 12.6707 10.845 12.9507 10.5 12.9507Z" fill="black"/>
</g>
<path fill-rule="evenodd" clip-rule="evenodd" d="M8.07206 5.35702C7.91289 5.35702 7.75289 5.29619 7.63123 5.17453C7.38706 4.93119 7.38539 4.53619 7.62956 4.29119L10.0587 1.85119C10.2929 1.61536 10.7096 1.61536 10.9437 1.85119L13.3737 4.29119C13.6171 4.53619 13.6162 4.93119 13.3721 5.17453C13.1271 5.41786 12.7321 5.41786 12.4887 5.17286L10.5012 3.17786L8.51456 5.17286C8.39289 5.29619 8.23206 5.35702 8.07206 5.35702Z" fill="black"/>
</svg>
