<svg width="21" height="20" viewBox="0 0 21 20" fill="none" xmlns="http://www.w3.org/2000/svg">
<mask id="mask0_339_3696" style="mask-type:luminance" maskUnits="userSpaceOnUse" x="2" y="0" width="18" height="19">
<path fill-rule="evenodd" clip-rule="evenodd" d="M2.1665 0.832031H19.2497V18.7529H2.1665V0.832031Z" fill="white"/>
</mask>
<g mask="url(#mask0_339_3696)">
<path fill-rule="evenodd" clip-rule="evenodd" d="M11.9304 12.7414C12.9338 12.7414 13.7504 13.5523 13.7504 14.5489V17.1123C13.7504 17.3264 13.9221 17.4981 14.1421 17.5031H15.7304C16.9821 17.5031 17.9996 16.4981 17.9996 15.2631V7.9931C17.9938 7.5681 17.7913 7.1681 17.4438 6.90227L11.9496 2.5206C11.2121 1.93643 10.1804 1.93643 9.44043 2.52227L3.98376 6.9006C3.62293 7.17477 3.42043 7.57477 3.41626 8.00727V15.2631C3.41626 16.4981 4.43376 17.5031 5.68543 17.5031H7.28876C7.51459 17.5031 7.69793 17.3239 7.69793 17.1039C7.69793 17.0556 7.70376 17.0073 7.71376 16.9614V14.5489C7.71376 13.5581 8.52543 12.7481 9.52126 12.7414H11.9304ZM15.7304 18.7531H14.1271C13.2088 18.7314 12.5004 18.0106 12.5004 17.1122V14.5489C12.5004 14.2414 12.2446 13.9914 11.9304 13.9914H9.52543C9.21793 13.9931 8.96376 14.2439 8.96376 14.5489V17.1039C8.96376 17.1664 8.95543 17.2264 8.93793 17.2831C8.84793 18.1081 8.14293 18.7531 7.28876 18.7531H5.68543C3.74459 18.7531 2.16626 17.1872 2.16626 15.2631V8.00141C2.17459 7.17307 2.55626 6.41474 3.21543 5.91557L8.66126 1.54474C9.86043 0.59474 11.5313 0.59474 12.7279 1.54307L18.2129 5.91807C18.8571 6.40891 19.2388 7.16557 19.2496 7.98391V15.2631C19.2496 17.1872 17.6713 18.7531 15.7304 18.7531Z" fill="black"/>
</g>
</svg>
