<svg width="20" height="20" viewBox="0 0 20 20" fill="none" xmlns="http://www.w3.org/2000/svg">
<path fill-rule="evenodd" clip-rule="evenodd" d="M9.90621 10.5157H9.93288C12.3729 10.5157 14.357 8.5315 14.357 6.0915C14.357 3.6515 12.3729 1.6665 9.93288 1.6665C7.49205 1.6665 5.50705 3.6515 5.50705 6.089C5.49871 8.52234 7.47121 10.5082 9.90621 10.5157ZM6.69705 6.0915C6.69705 4.30734 8.14871 2.8565 9.93288 2.8565C11.7162 2.8565 13.167 4.30734 13.167 6.0915C13.167 7.87484 11.7162 9.3265 9.93288 9.3265H9.90871C8.13205 9.31984 6.69121 7.86984 6.69705 6.0915Z" fill="black"/>
<path fill-rule="evenodd" clip-rule="evenodd" d="M3.33203 15.1443C3.33203 18.2251 8.30036 18.2251 9.93286 18.2251C12.7654 18.2251 16.532 17.9076 16.532 15.161C16.532 12.0801 11.5654 12.0801 9.93286 12.0801C7.09953 12.0801 3.33203 12.3976 3.33203 15.1443ZM4.58203 15.1443C4.58203 13.9401 6.38203 13.3301 9.93286 13.3301C13.4829 13.3301 15.282 13.946 15.282 15.161C15.282 16.3651 13.4829 16.9751 9.93286 16.9751C6.38203 16.9751 4.58203 16.3593 4.58203 15.1443Z" fill="black"/>
</svg>
