<svg width="20" height="20" viewBox="0 0 20 20" fill="none" xmlns="http://www.w3.org/2000/svg">
<path fill-rule="evenodd" clip-rule="evenodd" d="M5.20964 2.91699C2.91797 2.91699 2.91797 3.09033 2.91797 5.20866V5.22949C2.91797 6.15199 2.91797 6.81866 3.1438 7.10033C3.36464 7.37366 4.02047 7.50033 5.20964 7.50033C6.3988 7.50033 7.05464 7.37283 7.27547 7.09949C7.5013 6.81866 7.5013 6.15199 7.5013 5.22866C7.5013 3.09033 7.5013 2.91699 5.20964 2.91699M5.20964 8.75033C3.80464 8.75033 2.75047 8.60283 2.1713 7.88366C1.66797 7.25949 1.66797 6.40783 1.66797 5.22949L2.29297 5.20866H1.66797C1.66797 2.81699 1.8188 1.66699 5.20964 1.66699C8.60047 1.66699 8.7513 2.81699 8.7513 5.20866C8.7513 6.40699 8.7513 7.25949 8.24797 7.88366C7.6688 8.60283 6.61464 8.75033 5.20964 8.75033" fill="black"/>
<path fill-rule="evenodd" clip-rule="evenodd" d="M14.3757 2.91699C12.084 2.91699 12.084 3.09033 12.084 5.20866V5.22949C12.084 6.15199 12.084 6.81866 12.3098 7.10033C12.5307 7.37366 13.1865 7.50033 14.3757 7.50033C15.5648 7.50033 16.2207 7.37283 16.4415 7.09949C16.6673 6.81866 16.6673 6.15199 16.6673 5.22866C16.6673 3.09033 16.6673 2.91699 14.3757 2.91699M14.3757 8.75033C12.9707 8.75033 11.9165 8.60283 11.3373 7.88366C10.834 7.25949 10.834 6.40783 10.834 5.22949L11.459 5.20866H10.834C10.834 2.81699 10.9848 1.66699 14.3757 1.66699C17.7665 1.66699 17.9173 2.81699 17.9173 5.20866C17.9173 6.40699 17.9173 7.25949 17.414 7.88366C16.8348 8.60283 15.7807 8.75033 14.3757 8.75033" fill="black"/>
<path fill-rule="evenodd" clip-rule="evenodd" d="M5.20964 12.0835C2.91797 12.0835 2.91797 12.2568 2.91797 14.3752V14.396C2.91797 15.3185 2.91797 15.9852 3.1438 16.2668C3.36464 16.5402 4.02047 16.6668 5.20964 16.6668C6.3988 16.6668 7.05464 16.5393 7.27547 16.266C7.5013 15.9852 7.5013 15.3185 7.5013 14.3952C7.5013 12.2568 7.5013 12.0835 5.20964 12.0835M5.20964 17.9168C3.80464 17.9168 2.75047 17.7693 2.1713 17.0502C1.66797 16.426 1.66797 15.5743 1.66797 14.396L2.29297 14.3752H1.66797C1.66797 11.9835 1.8188 10.8335 5.20964 10.8335C8.60047 10.8335 8.7513 11.9835 8.7513 14.3752C8.7513 15.5735 8.7513 16.426 8.24797 17.0502C7.6688 17.7693 6.61464 17.9168 5.20964 17.9168" fill="black"/>
<path fill-rule="evenodd" clip-rule="evenodd" d="M14.3757 12.0835C12.084 12.0835 12.084 12.2568 12.084 14.3752V14.396C12.084 15.3185 12.084 15.9852 12.3098 16.2668C12.5307 16.5402 13.1865 16.6668 14.3757 16.6668C15.5648 16.6668 16.2207 16.5393 16.4415 16.266C16.6673 15.9852 16.6673 15.3185 16.6673 14.3952C16.6673 12.2568 16.6673 12.0835 14.3757 12.0835M14.3757 17.9168C12.9707 17.9168 11.9165 17.7693 11.3373 17.0502C10.834 16.426 10.834 15.5743 10.834 14.396L11.459 14.3752H10.834C10.834 11.9835 10.9848 10.8335 14.3757 10.8335C17.7665 10.8335 17.9173 11.9835 17.9173 14.3752C17.9173 15.5735 17.9173 16.426 17.414 17.0502C16.8348 17.7693 15.7807 17.9168 14.3757 17.9168" fill="black"/>
</svg>
