<svg width="24" height="24" viewBox="0 0 24 24" fill="none" xmlns="http://www.w3.org/2000/svg">
<path fill-rule="evenodd" clip-rule="evenodd" d="M11.777 13.4655C11.108 13.4655 10.441 13.2445 9.88298 12.8025L5.39798 9.18648C5.07498 8.92648 5.02498 8.45348 5.28398 8.13148C5.54498 7.81048 6.01698 7.75948 6.33898 8.01848L10.82 11.6305C11.383 12.0765 12.176 12.0765 12.743 11.6265L17.179 8.02048C17.501 7.75748 17.973 7.80748 18.235 8.12948C18.496 8.45048 18.447 8.92248 18.126 9.18448L13.682 12.7965C13.12 13.2425 12.448 13.4655 11.777 13.4655" fill="black"/>
<mask id="mask0_3703_5122" style="mask-type:luminance" maskUnits="userSpaceOnUse" x="1" y="2" width="22" height="20">
<path fill-rule="evenodd" clip-rule="evenodd" d="M1.00024 2.00195H22.5001V21.502H1.00024V2.00195Z" fill="white"/>
</mask>
<g mask="url(#mask0_3703_5122)">
<path fill-rule="evenodd" clip-rule="evenodd" d="M6.83914 20.002H16.6591C16.6611 20 16.6691 20.002 16.6751 20.002C17.8161 20.002 18.8281 19.594 19.6041 18.819C20.5051 17.922 21.0001 16.633 21.0001 15.19V8.32195C21.0001 5.52895 19.1741 3.50195 16.6591 3.50195H6.84114C4.32614 3.50195 2.50014 5.52895 2.50014 8.32195V15.19C2.50014 16.633 2.99614 17.922 3.89614 18.819C4.67214 19.594 5.68514 20.002 6.82514 20.002H6.83914ZM6.82224 21.502C5.27924 21.502 3.90124 20.942 2.83724 19.882C1.65224 18.7 1.00024 17.034 1.00024 15.19V8.32195C1.00024 4.71895 3.51124 2.00195 6.84124 2.00195H16.6592C19.9892 2.00195 22.5002 4.71895 22.5002 8.32195V15.19C22.5002 17.034 21.8482 18.7 20.6632 19.882C19.6002 20.941 18.2212 21.502 16.6752 21.502H16.6592H6.84124H6.82224Z" fill="black"/>
</g>
</svg>
