<svg width="24" height="24" viewBox="0 0 24 24" fill="none" xmlns="http://www.w3.org/2000/svg">
<path fill-rule="evenodd" clip-rule="evenodd" d="M12 9.64063C10.67 9.64063 9.58899 10.7226 9.58899 12.0526C9.58899 13.3816 10.67 14.4626 12 14.4626C13.33 14.4626 14.412 13.3816 14.412 12.0526C14.412 10.7226 13.33 9.64063 12 9.64063ZM12 15.9626C9.84299 15.9626 8.08899 14.2086 8.08899 12.0526C8.08899 9.89562 9.84299 8.14062 12 8.14062C14.157 8.14062 15.912 9.89562 15.912 12.0526C15.912 14.2086 14.157 15.9626 12 15.9626Z" fill="black"/>
<mask id="mask0_3720_1554" style="mask-type:luminance" maskUnits="userSpaceOnUse" x="2" y="4" width="21" height="17">
<path fill-rule="evenodd" clip-rule="evenodd" d="M2.00049 4H22.0003V20.105H2.00049V4Z" fill="white"/>
</mask>
<g mask="url(#mask0_3720_1554)">
<path fill-rule="evenodd" clip-rule="evenodd" d="M3.57035 12.0525C5.43035 16.1615 8.56335 18.6045 12.0004 18.6055C15.4374 18.6045 18.5704 16.1615 20.4304 12.0525C18.5704 7.94449 15.4374 5.50149 12.0004 5.50049C8.56435 5.50149 5.43035 7.94449 3.57035 12.0525ZM12.0022 20.1057H11.9982H11.9972C7.86124 20.1027 4.14724 17.2038 2.06124 12.3488C1.98024 12.1597 1.98024 11.9458 2.06124 11.7568C4.14724 6.90275 7.86224 4.00375 11.9972 4.00075C11.9992 3.99975 11.9992 3.99975 12.0002 4.00075C12.0022 3.99975 12.0022 3.99975 12.0032 4.00075C16.1392 4.00375 19.8532 6.90275 21.9392 11.7568C22.0212 11.9458 22.0212 12.1597 21.9392 12.3488C19.8542 17.2038 16.1392 20.1027 12.0032 20.1057H12.0022Z" fill="black"/>
</g>
</svg>
