<svg xmlns="http://www.w3.org/2000/svg" width="24" height="24" viewBox="0 0 24 24" fill="none">
<path fill-rule="evenodd" clip-rule="evenodd" d="M3.28872 4.08785L3.36127 4.01204C5.28869 2.08444 6.54385 1.57351 7.88307 2.34362C8.2683 2.56515 8.62945 2.87523 9.12054 3.37401L10.6269 4.93603C11.4589 5.84393 11.6481 6.71478 11.3772 7.73465L11.3398 7.86967L11.2984 8.00392L11.097 8.59474C10.666 9.91972 10.846 10.6673 12.3795 12.2004C13.9742 13.7947 14.7186 13.9251 16.1457 13.4264L16.4001 13.338L16.7077 13.2381L16.8423 13.2007C17.9263 12.9115 18.842 13.1423 19.8132 14.1128L21.0269 15.2852L21.3842 15.6366C21.7803 16.0405 22.0421 16.3606 22.2355 16.6989C23.0008 18.0377 22.4893 19.2921 20.5063 21.2677L20.3177 21.4589C20.0216 21.7442 19.745 21.9486 19.3386 22.1416C18.6565 22.4655 17.8506 22.5876 16.9142 22.4573C14.6067 22.1364 11.6802 20.3158 7.97188 16.6085C7.67002 16.3067 7.3809 16.0107 7.10425 15.7205L6.56748 15.1476C1.53762 9.68285 1.09389 6.32588 3.15518 4.2205L3.28872 4.08785ZM7.90641 4.28086C7.58061 3.95967 7.34395 3.76387 7.13531 3.64389C6.67378 3.37849 6.17549 3.49068 5.25329 4.28441L4.96352 4.54328C4.91298 4.58993 4.86128 4.63836 4.80837 4.68862L4.4761 5.01224L4.44616 5.04965L4.2209 5.27596C3.67655 5.83197 3.4187 6.51057 3.6409 7.6776C4.0055 9.59262 5.67441 12.1905 9.0324 15.5476C12.5313 19.0456 15.1972 20.7041 17.1208 20.9716C18.2422 21.1275 18.8142 20.8559 19.3975 20.2583L19.8424 19.8094C20.051 19.5911 20.2292 19.3933 20.3797 19.2125L20.585 18.9538C21.1097 18.255 21.1576 17.8357 20.9332 17.4432C20.8479 17.2939 20.7237 17.1301 20.5429 16.93L20.2976 16.671L20.1525 16.5257L18.6213 15.0471C18.1096 14.5753 17.7599 14.5083 17.229 14.65L17.0757 14.694L16.4414 14.9094C14.6013 15.5036 13.2738 15.2155 11.3189 13.2611C9.29429 11.237 9.05684 9.8853 9.73521 7.93911L9.77873 7.81404L9.89907 7.45147L9.95823 7.22036C10.0631 6.71739 9.94336 6.36671 9.40269 5.82594C9.38042 5.80368 9.35554 5.77859 9.32847 5.75113L7.90641 4.28086Z" fill="black"/>
</svg>