<svg width="44" height="45" viewBox="0 0 44 45" fill="none" xmlns="http://www.w3.org/2000/svg">
<rect y="0.5" width="44" height="44" rx="12" fill="#1863E3" fill-opacity="0.05"/>
<path fill-rule="evenodd" clip-rule="evenodd" d="M19.6445 17.9907C19.4958 18.1916 19.5129 18.4781 19.7008 18.6599C19.9008 18.8599 20.2274 18.8599 20.4274 18.6599L21.4874 17.5933V20.3533H22.5141V17.5933L23.5741 18.6599L23.6316 18.7095C23.8324 18.8583 24.1189 18.8417 24.3008 18.6599C24.4008 18.5599 24.4541 18.4266 24.4541 18.2933C24.4541 18.1666 24.4008 18.0333 24.3008 17.9333L22.3608 15.9866L22.3003 15.9322C22.2141 15.8674 22.1074 15.8333 22.0008 15.8333C21.8608 15.8333 21.7341 15.8866 21.6341 15.9866L19.6941 17.9333L19.6445 17.9907ZM18.1548 20.3567C16.5859 20.4308 15.334 21.7505 15.334 23.3582V26.6683L15.3372 26.81C15.41 28.4065 16.7075 29.6867 18.3007 29.6867H25.7073L25.8465 29.6834C27.4154 29.6093 28.6673 28.2894 28.6673 26.6751V23.3718L28.6641 23.2296C28.5909 21.6272 27.2873 20.3534 25.7007 20.3534H22.514V24.4232L22.5092 24.4947C22.4748 24.7517 22.2573 24.9454 22.0007 24.9454C21.714 24.9454 21.4873 24.7148 21.4873 24.4232V20.3534H18.294L18.1548 20.3567Z" fill="#1863E3"/>
</svg>
