<svg width="21" height="20" viewBox="0 0 21 20" fill="none" xmlns="http://www.w3.org/2000/svg">
<path d="M8.11101 17.3114V14.7633C8.11101 14.1129 8.64217 13.5856 9.29739 13.5856H11.6925C12.0072 13.5856 12.3089 13.7097 12.5314 13.9305C12.7539 14.1514 12.8789 14.451 12.8789 14.7633V17.3114C12.8769 17.5819 12.9838 17.8419 13.1757 18.0338C13.3676 18.2257 13.6287 18.3337 13.9011 18.3337H15.5352C16.2984 18.3356 17.031 18.036 17.5713 17.501C18.1117 16.966 18.4154 16.2395 18.4154 15.4818V8.22271C18.4153 7.61071 18.1421 7.03019 17.6692 6.63755L12.1104 2.23022C11.1434 1.45746 9.75796 1.48241 8.81986 2.28947L3.38787 6.63755C2.89265 7.01862 2.59666 7.60086 2.58203 8.22271V15.4744C2.58203 17.0535 3.87152 18.3337 5.46218 18.3337H7.05894C7.62472 18.3337 8.08453 17.8805 8.08863 17.3189L8.11101 17.3114Z" fill="#F2B10A"/>
</svg>
