<svg width="21" height="20" viewBox="0 0 21 20" fill="none" xmlns="http://www.w3.org/2000/svg">
<path fill-rule="evenodd" clip-rule="evenodd" d="M10.5013 2.91699C6.59547 2.91699 3.41797 6.09449 3.41797 10.0003C3.41797 13.9062 6.59547 17.0837 10.5013 17.0837C14.4071 17.0837 17.5846 13.9062 17.5846 10.0003C17.5846 6.09449 14.4071 2.91699 10.5013 2.91699M10.5013 18.3337C5.9063 18.3337 2.16797 14.5953 2.16797 10.0003C2.16797 5.40533 5.9063 1.66699 10.5013 1.66699C15.0963 1.66699 18.8346 5.40533 18.8346 10.0003C18.8346 14.5953 15.0963 18.3337 10.5013 18.3337" fill="black"/>
<path fill-rule="evenodd" clip-rule="evenodd" d="M13.3604 13.0773C13.2513 13.0773 13.1413 13.0489 13.0404 12.9898L9.89875 11.1156C9.71042 11.0023 9.59375 10.7981 9.59375 10.5781V6.53809C9.59375 6.19309 9.87375 5.91309 10.2188 5.91309C10.5646 5.91309 10.8438 6.19309 10.8438 6.53809V10.2231L13.6813 11.9148C13.9771 12.0923 14.0746 12.4756 13.8979 12.7723C13.7804 12.9681 13.5729 13.0773 13.3604 13.0773" fill="black"/>
</svg>
