<svg width="20" height="20" viewBox="0 0 20 20" fill="none" xmlns="http://www.w3.org/2000/svg">
<path fill-rule="evenodd" clip-rule="evenodd" d="M9.99984 18.3346C5.39984 18.3346 1.6665 14.6096 1.6665 10.0013C1.6665 5.4013 5.39984 1.66797 9.99984 1.66797C14.6082 1.66797 18.3332 5.4013 18.3332 10.0013C18.3332 14.6096 14.6082 18.3346 9.99984 18.3346ZM12.6582 13.093C12.7582 13.1514 12.8665 13.1847 12.9832 13.1847C13.1915 13.1847 13.3998 13.0764 13.5165 12.8764C13.6915 12.5847 13.5998 12.2014 13.2998 12.018L10.3332 10.2514V6.40137C10.3332 6.05137 10.0498 5.77637 9.70817 5.77637C9.3665 5.77637 9.08317 6.05137 9.08317 6.40137V10.6097C9.08317 10.8264 9.19984 11.0264 9.3915 11.143L12.6582 13.093Z" fill="#F2B10A"/>
</svg>
