<svg width="17" height="18" viewBox="0 0 17 18" fill="none" xmlns="http://www.w3.org/2000/svg">
<path fill-rule="evenodd" clip-rule="evenodd" d="M2.28329 0.667969H5.09996C6.27496 0.667969 7.21663 1.6263 7.21663 2.80214V5.64297C7.21663 6.8263 6.27496 7.7763 5.09996 7.7763H2.28329C1.11663 7.7763 0.166626 6.8263 0.166626 5.64297V2.80214C0.166626 1.6263 1.11663 0.667969 2.28329 0.667969ZM2.28329 10.2261H5.09996C6.27496 10.2261 7.21663 11.1769 7.21663 12.3602V15.2011C7.21663 16.3761 6.27496 17.3344 5.09996 17.3344H2.28329C1.11663 17.3344 0.166626 16.3761 0.166626 15.2011V12.3602C0.166626 11.1769 1.11663 10.2261 2.28329 10.2261ZM14.7167 0.667969H11.9C10.725 0.667969 9.78337 1.6263 9.78337 2.80214V5.64297C9.78337 6.8263 10.725 7.7763 11.9 7.7763H14.7167C15.8834 7.7763 16.8334 6.8263 16.8334 5.64297V2.80214C16.8334 1.6263 15.8834 0.667969 14.7167 0.667969ZM11.9 10.2261H14.7167C15.8834 10.2261 16.8334 11.1769 16.8334 12.3602V15.2011C16.8334 16.3761 15.8834 17.3344 14.7167 17.3344H11.9C10.725 17.3344 9.78337 16.3761 9.78337 15.2011V12.3602C9.78337 11.1769 10.725 10.2261 11.9 10.2261Z" fill="#F2B10A"/>
</svg>
